<?xml version="1.0" encoding="utf-8"?>
<!-- Generator: Adobe Illustrator 19.0.1, SVG Export Plug-In . SVG Version: 6.00 Build 0)  -->
<svg version="1.1" id="Слой_1" xmlns="http://www.w3.org/2000/svg" xmlns:xlink="http://www.w3.org/1999/xlink" x="0px" y="0px"
	 viewBox="0 0 424 424" style="enable-background:new 0 0 424 424;" xml:space="preserve">
<g>
	<defs>
		<path id="SVGID_1_" d="M367.9,22c-4.4,4.2-9.3,8.8-14.7,14c11.1,10.6,22.4,21.5,33.8,32.1c0.8,0.7,3.6,0.6,4.5-0.2
			c3.4-2.9,6.6-6.1,9.5-9.5c0.8-0.9,0.9-3.8,0.1-4.5C390,42.9,378.7,32.2,367.9,22z M189.8,272.1c-13.2-12.9-25.3-24.9-38.3-37.7
			c-6,14.9-11.9,29.9-18.2,45.5c4,0,7.1,0,10.7,0c0,3.5,0,6.6,0,10.6C159.5,284.3,174.3,278.4,189.8,272.1z M159.6,229.6
			c8.6,8.5,17.3,17.2,26,25.9c9.5,9.5,9.7,9.5,19.4-0.3C261.1,199.1,317.1,143.1,373.2,87c1.2-1.2,2.4-2.6,3.5-3.8
			c-12.3-12.1-24.3-23.8-35.7-35C280.9,108.2,220.5,168.6,159.6,229.6z M292.7,74.3c-0.6-0.7-1.2-1.5-1.8-2.2
			c-1.1-0.1-2.3-0.3-3.4-0.3c-85,0-170,0-255,0c-10.1,0-16.6,6.8-16.6,17.3c0,100.1,0,200.3,0.1,300.4c0,12.3,6.1,18.3,18.5,18.3
			c83.7,0,167.3,0,251,0c12.4,0,18.5-6,18.5-18.3c0-68.7,0-137.3,0-206c0-1.1-0.2-2.1-0.3-3.2c-0.4-0.2-0.8-0.5-1.1-0.7
			c-1.1,1.4-2.1,3-3.4,4.3c-33,33-65.9,66-99,98.9c-2.2,2.2-4.9,4.1-7.7,5.2c-25.1,10.2-50.3,20.2-75.5,30.4
			c-3.8,1.5-7.4,2.1-10.6-1.2c-3-3.1-2.5-6.5-1-10.2c9.7-24.2,19.2-48.5,29-72.7c1.5-3.6,3.5-7.3,6.2-10.1
			c17.6-18,35.4-35.8,53.1-53.6c31.3-31.3,62.7-62.6,94.2-93.8C289.1,75.7,291.1,75.2,292.7,74.3z M0.1,239.8c0-49.7,0-99.3,0-149
			C0.1,69.1,13.3,56,35,56c83.2,0,166.3-0.1,249.5,0.1c5.8,0,11.6,2.2,17.5,3c1.7,0.2,4.1-0.5,5.3-1.7c17.6-17.3,35-34.8,52.4-52.2
			c7-7,9.8-7,16.9,0.2c14.4,14.4,28.8,28.7,43.1,43.1c5.8,5.8,5.8,9.3-0.1,15.2c-31.7,31.7-63.4,63.4-95.2,95
			c-3.2,3.2-4.6,6.2-4.6,10.8c0.2,73,0.1,146,0.1,219c0,22.5-12.9,35.4-35.3,35.4c-83.3,0-166.7,0-250,0C13.2,423.9,0,410.7,0,389.3
			C0.1,339.4,0.1,289.6,0.1,239.8z"/>
	</defs>
	<clipPath id="SVGID_2_">
		<use xlink:href="#SVGID_1_"  style="overflow:visible;"/>
	</clipPath>
	<rect x="-5" y="-5" style="clip-path:url(#SVGID_2_);" width="434" height="433.9"/>
</g>
</svg>
